<svg width="16" height="16" viewBox="0 0 16 16" fill="none" xmlns="http://www.w3.org/2000/svg">
<path d="M11.6002 14.6667C8.87836 14.6631 6.26904 13.5803 4.34443 11.6557C2.41982 9.73112 1.33702 7.12181 1.3335 4.4C1.3335 3.58667 1.65659 2.80665 2.2317 2.23154C2.80681 1.65643 3.58683 1.33334 4.40016 1.33334C4.57239 1.33202 4.74433 1.34765 4.9135 1.38C5.07704 1.4042 5.23781 1.4444 5.3935 1.5C5.503 1.53842 5.60057 1.60476 5.67657 1.69245C5.75257 1.78014 5.80436 1.88615 5.82683 2L6.74016 6C6.76478 6.10858 6.76182 6.22159 6.73154 6.32872C6.70126 6.43586 6.64464 6.53371 6.56683 6.61334C6.48016 6.70667 6.4735 6.71334 5.6535 7.14C6.31016 8.58057 7.4623 9.73744 8.90016 10.4C9.3335 9.57334 9.34016 9.56667 9.4335 9.48C9.51313 9.4022 9.61097 9.34557 9.71811 9.31529C9.82524 9.28502 9.93825 9.28205 10.0468 9.30667L14.0468 10.22C14.157 10.2456 14.2589 10.2988 14.3429 10.3746C14.4269 10.4504 14.4902 10.5463 14.5268 10.6533C14.5831 10.8116 14.6255 10.9744 14.6535 11.14C14.6803 11.3076 14.6937 11.477 14.6935 11.6467C14.6812 12.4565 14.349 13.2286 13.7695 13.7944C13.1899 14.3602 12.4101 14.6738 11.6002 14.6667ZM4.40016 2.66667C3.94099 2.66842 3.50113 2.85161 3.17645 3.17629C2.85177 3.50097 2.66859 3.94083 2.66683 4.4C2.6686 6.76873 3.61035 9.03993 5.28529 10.7149C6.96023 12.3898 9.23144 13.3316 11.6002 13.3333C12.0593 13.3316 12.4992 13.1484 12.8239 12.8237C13.1486 12.499 13.3317 12.0592 13.3335 11.6V11.38L10.2402 10.6667L10.0468 11.0333C9.74683 11.6133 9.52683 12.0333 8.96683 11.8067C7.86208 11.4112 6.85929 10.7747 6.03132 9.94326C5.20334 9.11182 4.57098 8.10639 4.18016 7C3.94016 6.48 4.3935 6.24 4.96683 5.94L5.3335 5.76L4.62016 2.66667H4.40016Z" fill="#FF9900"/>
</svg>
