<svg width="16" height="16" viewBox="0 0 16 16" fill="none" xmlns="http://www.w3.org/2000/svg">
<path d="M12.6668 2.66666H3.3335C2.80306 2.66666 2.29436 2.87738 1.91928 3.25245C1.54421 3.62752 1.3335 4.13623 1.3335 4.66666V11.3333C1.3335 11.8638 1.54421 12.3725 1.91928 12.7475C2.29436 13.1226 2.80306 13.3333 3.3335 13.3333H12.6668C13.1973 13.3333 13.706 13.1226 14.081 12.7475C14.4561 12.3725 14.6668 11.8638 14.6668 11.3333V4.66666C14.6668 4.13623 14.4561 3.62752 14.081 3.25245C13.706 2.87738 13.1973 2.66666 12.6668 2.66666ZM12.2202 4L8.00016 7.16666L3.78016 4H12.2202ZM12.6668 12H3.3335C3.15669 12 2.98712 11.9298 2.86209 11.8047C2.73707 11.6797 2.66683 11.5101 2.66683 11.3333V4.83333L7.60016 8.53333C7.71556 8.61988 7.85592 8.66666 8.00016 8.66666C8.14441 8.66666 8.28477 8.61988 8.40016 8.53333L13.3335 4.83333V11.3333C13.3335 11.5101 13.2633 11.6797 13.1382 11.8047C13.0132 11.9298 12.8436 12 12.6668 12Z" fill="#FF9900"/>
</svg>
