<svg width="25" height="25" viewBox="0 0 25 25" fill="none" xmlns="http://www.w3.org/2000/svg">
<g clip-path="url(#clip0_5627_199)">
<path d="M12.5007 4.7177C14.9476 2.52083 18.7288 2.59374 21.0861 4.9552C23.4424 7.3177 23.5236 11.0802 21.332 13.5344L12.4986 22.3802L3.66739 13.5344C1.47572 11.0802 1.55801 7.31145 3.91322 4.9552C6.2726 2.59687 10.0466 2.5177 12.5007 4.7177ZM19.6111 6.42708C18.0486 4.86249 15.5278 4.79895 13.8924 6.2677L12.5018 7.51562L11.1101 6.26874C9.46947 4.79791 6.95385 4.86249 5.38718 6.42916C3.8351 7.98124 3.75697 10.4656 5.18718 12.1073L12.4997 19.4312L19.8122 12.1083C21.2434 10.4656 21.1653 7.98437 19.6111 6.42708Z" fill="#383838"/>
</g>
<defs>
<clipPath id="clip0_5627_199">
<rect width="25" height="25" fill="white"/>
</clipPath>
</defs>
</svg>
