<svg width="25" height="25" viewBox="0 0 25 25" fill="none" xmlns="http://www.w3.org/2000/svg">
<g clip-path="url(#clip0_5627_202)">
<path d="M4.16634 16.6667V4.16666H2.08301V2.08333H5.20801C5.48427 2.08333 5.74923 2.19307 5.94458 2.38843C6.13993 2.58378 6.24967 2.84873 6.24967 3.12499V15.625H19.2059L21.2893 7.29166H8.33301V5.20833H22.6247C22.783 5.20833 22.9393 5.24443 23.0816 5.31389C23.2239 5.38334 23.3484 5.48432 23.4459 5.60915C23.5433 5.73398 23.6109 5.87937 23.6437 6.03428C23.6765 6.18918 23.6736 6.34953 23.6351 6.50312L21.0309 16.9198C20.9745 17.145 20.8444 17.345 20.6613 17.4879C20.4783 17.6307 20.2527 17.7083 20.0205 17.7083H5.20801C4.93174 17.7083 4.66679 17.5986 4.47144 17.4032C4.27609 17.2079 4.16634 16.9429 4.16634 16.6667ZM6.24967 23.9583C5.69714 23.9583 5.16724 23.7388 4.77654 23.3481C4.38583 22.9574 4.16634 22.4275 4.16634 21.875C4.16634 21.3225 4.38583 20.7926 4.77654 20.4019C5.16724 20.0112 5.69714 19.7917 6.24967 19.7917C6.80221 19.7917 7.33211 20.0112 7.72281 20.4019C8.11351 20.7926 8.33301 21.3225 8.33301 21.875C8.33301 22.4275 8.11351 22.9574 7.72281 23.3481C7.33211 23.7388 6.80221 23.9583 6.24967 23.9583ZM18.7497 23.9583C18.1971 23.9583 17.6672 23.7388 17.2765 23.3481C16.8858 22.9574 16.6663 22.4275 16.6663 21.875C16.6663 21.3225 16.8858 20.7926 17.2765 20.4019C17.6672 20.0112 18.1971 19.7917 18.7497 19.7917C19.3022 19.7917 19.8321 20.0112 20.2228 20.4019C20.6135 20.7926 20.833 21.3225 20.833 21.875C20.833 22.4275 20.6135 22.9574 20.2228 23.3481C19.8321 23.7388 19.3022 23.9583 18.7497 23.9583Z" fill="#383838"/>
</g>
<defs>
<clipPath id="clip0_5627_202">
<rect width="25" height="25" fill="white"/>
</clipPath>
</defs>
</svg>
