<svg width="107" height="31" viewBox="0 0 107 31" fill="none" xmlns="http://www.w3.org/2000/svg">
<path fill-rule="evenodd" clip-rule="evenodd" d="M17.7355 29.5756C23.6739 27.7503 27.9944 22.1812 27.9944 15.5943C27.9944 8.97531 23.6316 3.38408 17.6484 1.58664H92.6691C100.398 1.58664 106.664 7.85218 106.664 15.5811C106.664 23.3101 100.398 29.5756 92.6691 29.5756H17.7355Z" fill="#1074EB"/>
<ellipse cx="13.2604" cy="15.5943" rx="13.2604" ry="13.3753" fill="#FF9900"/>
<path d="M14.1064 11.8643C14.1066 12.4166 14.5545 12.8643 15.1068 12.8643H18.1719C18.8788 12.8643 19.3628 13.5777 19.1014 14.2344L14.4576 25.9026C14.0502 26.9263 12.5289 26.6344 12.5285 25.5326L12.5263 19.3661C12.5261 18.8138 12.0782 18.3661 11.5259 18.3661H8.46072C7.75386 18.3661 7.26987 17.6527 7.53121 16.996L12.175 5.32775C12.5824 4.30412 14.1038 4.59596 14.1042 5.69782L14.1064 11.8643Z" fill="white"/>
<path d="M39.4533 23.4244C38.1213 23.4244 37.004 23.208 36.1012 22.7751C35.1985 22.3422 34.5103 21.7749 34.0368 21.0733C33.578 20.3718 33.3338 19.6254 33.3042 18.8342C33.3042 18.6999 33.3486 18.5879 33.4374 18.4984C33.5262 18.4088 33.6372 18.364 33.7704 18.364H36.2788C36.4564 18.364 36.597 18.4088 36.7006 18.4984C36.819 18.573 36.9078 18.6775 36.967 18.8118C37.115 19.2149 37.3074 19.5433 37.5442 19.7971C37.7958 20.0508 38.0843 20.2374 38.4099 20.3568C38.7355 20.4763 39.0833 20.536 39.4533 20.536C39.9268 20.536 40.3634 20.4389 40.763 20.2449C41.1626 20.0359 41.4808 19.7373 41.7176 19.3492C41.9543 18.9611 42.0727 18.4834 42.0727 17.9162C42.0727 17.4236 41.9617 16.9907 41.7397 16.6175C41.5178 16.2443 41.207 15.9532 40.8074 15.7443C40.4078 15.5353 39.9564 15.4308 39.4533 15.4308C39.0685 15.4308 38.7503 15.4756 38.4987 15.5651C38.2619 15.6547 38.0621 15.7666 37.8994 15.901C37.7366 16.0204 37.5886 16.1324 37.4554 16.2369C37.3222 16.3264 37.1742 16.3712 37.0114 16.3712H34.5473C34.4141 16.3712 34.2957 16.3264 34.1922 16.2369C34.1034 16.1324 34.059 16.0129 34.059 15.8786L34.8359 8.15365C34.8655 7.94466 34.9395 7.78792 35.0579 7.68343C35.1911 7.56401 35.3465 7.5043 35.5241 7.5043H44.1372C44.3 7.5043 44.4332 7.55655 44.5368 7.66104C44.6404 7.76553 44.6922 7.89988 44.6922 8.06408V9.85538C44.6922 10.0047 44.6404 10.1315 44.5368 10.236C44.4332 10.3405 44.3 10.3928 44.1372 10.3928H37.7218L37.3888 13.6843C37.6848 13.4902 38.0473 13.3185 38.4765 13.1693C38.9205 13.0051 39.5347 12.923 40.319 12.923C41.0294 12.923 41.7028 13.0424 42.3391 13.2812C42.9903 13.5051 43.5675 13.841 44.0706 14.2888C44.5738 14.7367 44.966 15.274 45.2472 15.901C45.5431 16.513 45.6911 17.2146 45.6911 18.0058C45.6911 19.0805 45.4396 20.0284 44.9364 20.8494C44.4332 21.6555 43.7154 22.2899 42.7831 22.7527C41.8507 23.2005 40.7408 23.4244 39.4533 23.4244Z" fill="white"/>
<path d="M53.6281 23.1781C53.4653 23.1781 53.3321 23.1259 53.2285 23.0214C53.1249 22.9169 53.0731 22.7825 53.0731 22.6183V8.06408C53.0731 7.89988 53.1249 7.76553 53.2285 7.66104C53.3321 7.55655 53.4653 7.5043 53.6281 7.5043H55.9812C56.1439 7.5043 56.2771 7.55655 56.3807 7.66104C56.4843 7.76553 56.5361 7.89988 56.5361 8.06408V13.1693L61.1091 7.92974C61.1683 7.84017 61.2645 7.75061 61.3977 7.66104C61.5457 7.55655 61.738 7.5043 61.9748 7.5043H64.6609C64.7941 7.5043 64.9051 7.55655 64.9939 7.66104C65.0827 7.75061 65.1271 7.8551 65.1271 7.97452C65.1271 8.07901 65.0975 8.16857 65.0383 8.24321L59.3332 15.0053L65.46 22.4392C65.5192 22.4989 65.5488 22.5885 65.5488 22.7079C65.5488 22.8273 65.5044 22.9393 65.4156 23.0438C65.3269 23.1333 65.2159 23.1781 65.0827 23.1781H62.3078C62.0414 23.1781 61.8416 23.1184 61.7085 22.999C61.5753 22.8796 61.4865 22.7975 61.4421 22.7527L56.5361 17.0205V22.6183C56.5361 22.7825 56.4843 22.9169 56.3807 23.0214C56.2771 23.1259 56.1439 23.1781 55.9812 23.1781H53.6281Z" fill="white"/>
<path d="M71.9301 23.1781C71.6933 23.1781 71.501 23.1184 71.353 22.999C71.2198 22.8646 71.1236 22.7079 71.0644 22.5288L66.4026 8.17604C66.3878 8.1014 66.3804 8.03423 66.3804 7.97452C66.3804 7.8551 66.4248 7.75061 66.5136 7.66104C66.6024 7.55655 66.7134 7.5043 66.8466 7.5043H69.1775C69.3995 7.5043 69.5697 7.57148 69.6881 7.70582C69.8213 7.82524 69.9026 7.9372 69.9322 8.04169L73.3953 18.991L76.8361 8.04169C76.8805 7.9372 76.9619 7.82524 77.0803 7.70582C77.1987 7.57148 77.3688 7.5043 77.5908 7.5043H79.9217C80.0549 7.5043 80.1659 7.55655 80.2547 7.66104C80.3435 7.75061 80.3879 7.8551 80.3879 7.97452C80.3879 8.03423 80.3805 8.1014 80.3657 8.17604L75.7039 22.5288C75.6595 22.7079 75.5633 22.8646 75.4154 22.999C75.2822 23.1184 75.0898 23.1781 74.8382 23.1781H71.9301Z" fill="white"/>
<path d="M86.5729 23.1781C86.4101 23.1781 86.2769 23.1259 86.1733 23.0214C86.0697 22.9169 86.0179 22.7825 86.0179 22.6183V10.6167H81.9777C81.8297 10.6167 81.7039 10.5644 81.6003 10.4599C81.4967 10.3554 81.4449 10.2286 81.4449 10.0793V8.06408C81.4449 7.89988 81.4967 7.76553 81.6003 7.66104C81.7039 7.55655 81.8297 7.5043 81.9777 7.5043H93.6099C93.7727 7.5043 93.9059 7.55655 94.0095 7.66104C94.1131 7.76553 94.1648 7.89988 94.1648 8.06408V10.0793C94.1648 10.2286 94.1131 10.3554 94.0095 10.4599C93.9059 10.5644 93.7727 10.6167 93.6099 10.6167H89.5919V22.6183C89.5919 22.7825 89.5401 22.9169 89.4365 23.0214C89.3329 23.1259 89.1997 23.1781 89.0369 23.1781H86.5729Z" fill="white"/>
</svg>
